<?xml version="1.0" standalone="no"?><!DOCTYPE svg PUBLIC "-//W3C//DTD SVG 1.1//EN" "http://www.w3.org/Graphics/SVG/1.1/DTD/svg11.dtd"><svg t="1731460344604" class="icon" viewBox="0 0 1024 1024" version="1.1" xmlns="http://www.w3.org/2000/svg" p-id="15841" xmlns:xlink="http://www.w3.org/1999/xlink" width="200" height="200"><path d="M930.304 670.72c-47.616 62.464-40.448 121.344 1.536 182.784-14.848 1.024-25.6 2.048-36.352 2.048h-606.208c-58.88 0-91.136-33.792-92.16-94.72-1.024-56.832 32.768-89.6 92.16-89.6h606.208c9.728-0.512 19.968-0.512 34.816-0.512z" fill="#FFFFFF" p-id="15842"></path><path d="M545.28 834.56h-256.512c-47.616 0-71.168-24.576-71.68-74.752-0.512-22.016 5.12-38.912 16.896-50.688 11.776-12.288 31.232-18.432 55.296-18.432h604.16c-23.04 46.08-22.016 93.696 3.584 143.872h-351.744z" fill="#FCCC57" p-id="15843"></path><path d="M620.544 970.752c-126.976 0-266.752 0-425.984-0.512-46.592 0-83.456-24.064-101.888-66.048-1.024-3.072-2.56-5.632-3.584-8.192-10.752-23.552-16.384-38.4-19.456-83.968v-1.024c-2.048-214.016-2.56-424.448-1.536-626.176 0.512-59.392 4.096-97.28 74.24-126.976 10.752-4.608 32.256-9.728 58.368-13.824l1.536-0.512h333.312v333.312c1.024-1.024 2.048-2.56 3.072-3.584 15.872-17.408 20.992-23.552 37.376-45.568l14.848-20.48 58.88 67.072v-330.24H859.136c66.56 7.168 97.792 43.52 97.792 115.2v468.48h-67.072c-46.592 0-93.696-0.512-140.288-0.512-126.976-0.512-258.56-1.024-387.584-1.024h-86.016c-26.112 0-44.544 3.584-57.344 10.24-48.128 26.112-72.704 105.472-53.248 173.568 18.432 65.024 51.712 89.088 122.88 89.088h192.512c157.184 0 288.768 0 421.888 1.024h8.192c13.312 0 43.52 0.512 44.544 36.864 0 11.776-5.12 18.944-9.216 23.04-10.752 10.752-26.624 10.752-33.28 10.752h-6.144c-95.744-0.512-190.976 0-286.208 0z" fill="#FFFFFF" p-id="15844"></path><path d="M936.448 594.432v-14.336-421.888c0-64.512-25.6-89.088-79.36-94.72H670.72v364.032l-77.824-88.576c-23.552 32.256-25.088 31.744-62.976 74.752-10.24 11.264-6.656 7.68-14.848 15.872v-365.568h-310.784c-27.136 4.608-45.568 9.216-53.76 12.288-57.344 24.576-61.44 49.664-61.44 108.544-1.536 208.384-1.024 417.28 1.536 625.664 3.584 50.176 9.728 58.88 21.504 85.504 14.848 34.304 44.544 53.76 83.456 53.76 237.056 0.512 474.112 0.512 711.168 0 9.216 0 28.16 1.536 28.16-13.312-0.512-19.968-13.824-16.384-32.256-16.896-204.8-1.024-409.6-1.024-614.4-1.024-79.872 0-121.344-30.208-142.336-103.936-21.504-75.264 5.632-165.888 62.976-197.12 18.944-10.24 44.544-12.8 67.072-12.8 204.8-0.512 409.6 0.512 614.4 1.024h5.632c12.8 0 27.648-0.512 41.472-0.512-1.024-3.584-1.024-7.168-1.024-10.752z" fill="#FCCC57" p-id="15845"></path><path d="M88.576 184.32c0.512-58.88 25.088-95.744 81.92-112.128 8.192-2.56 25.088-5.632 33.28-8.704" fill="#FCCC57" p-id="15846"></path><path d="M651.264 449.536l-1.536-0.512c-1.536 0-3.072-0.512-4.608-1.024-1.024-0.512-2.048-0.512-3.584-1.024-4.096-1.536-7.168-4.096-10.24-6.656l-40.448-38.912-40.448 38.912c-2.56 2.56-6.144 4.608-9.728 6.656l-0.512 0.512c-1.024 0.512-2.048 0.512-2.56 1.024-2.048 0.512-3.584 1.024-5.632 1.024-1.024 0-2.56 0.512-3.584 0.512h-3.584l-1.024-0.512c-2.56-0.512-5.12-1.024-7.168-2.048-13.312-5.632-21.504-17.92-21.504-32.256v-354.816c0-14.336 8.192-27.136 20.992-32.256l0.512-0.512c1.536-0.512 3.072-1.024 4.096-1.024 1.536-0.512 4.096-1.024 7.168-1.024h125.952c8.704 0 16.384 3.072 23.04 9.216 6.656 6.144 10.752 15.872 10.752 25.088V415.232c0 9.728-4.096 18.944-10.752 25.6-2.56 2.56-6.144 5.12-10.24 6.656-2.56 1.024-5.12 1.536-7.68 2.048l-1.024 0.512H651.264z" fill="#FFFFFF" p-id="15847"></path><path d="M518.656 433.152c1.024 0.512 2.56 0.512 3.584 0.512h1.024c1.024 0 2.048 0 2.56-0.512 0.512 0 0.512 0 1.024-0.512 1.024-0.512 2.048-1.024 3.072-2.048l61.44-58.368 61.44 58.368c1.024 1.024 2.048 1.536 3.072 2.048 0.512 0 0.512 0.512 1.024 0.512 1.024 0.512 1.536 0.512 2.56 0.512h1.024c1.024 0 2.56 0 3.584-0.512 1.536-0.512 2.56-1.536 3.584-2.048 2.048-2.048 3.072-4.608 3.072-7.168v-383.488c0-2.56-1.024-5.632-3.072-7.168-2.048-2.048-4.608-3.072-7.68-3.072H522.24c-1.024 0-2.048 0.512-3.072 0.512h-1.024c-4.096 1.536-6.656 5.12-6.656 9.728v383.488c0.512 3.584 3.072 7.68 7.168 9.216z" fill="#FB4A40" p-id="15848"></path><path d="M744.96 213.504l-3.584-18.432c4.608-1.024 9.728-2.048 15.36-3.584v-56.32H742.4V118.272h45.056v16.896H773.12v52.224l16.896-4.096c-0.512 5.632-0.512 11.776-0.512 18.432-9.216 2.56-24.064 6.144-44.544 11.776z m59.392-105.984l15.872 3.072-4.608 13.824h46.592v16.384h-10.752c-2.56 19.968-8.704 36.864-17.92 50.688 8.192 8.192 17.92 14.336 29.184 18.944-3.584 4.608-7.168 10.24-10.752 16.384-11.776-6.144-21.504-13.824-29.696-22.528-9.728 9.728-21.504 17.408-34.816 24.064-3.072-5.12-7.168-10.24-11.264-15.872 14.336-6.144 26.112-13.312 35.328-22.016-6.144-9.728-10.24-19.968-13.312-32.256-2.56 4.096-5.12 7.68-7.68 11.776-3.584-5.12-7.68-9.728-11.264-13.824 11.776-16.384 19.968-32.768 25.088-48.64z m17.92 69.12c6.656-10.24 10.752-22.528 12.8-36.352h-25.6c2.56 13.824 6.656 26.112 12.8 36.352zM857.6 270.848v14.336c-3.584 8.192-8.704 15.36-15.36 21.504 6.144 2.56 12.8 4.096 20.48 5.12-1.536 5.12-3.072 10.24-4.608 16.384-10.752-2.56-20.48-6.144-28.672-11.776-7.68 5.12-16.896 9.216-27.648 12.288h53.76v49.664h-14.848v-6.144h-25.088v6.656h-14.848v-49.664l-2.048 0.512-4.608-10.752v51.712h-12.288v-8.704h-22.528v9.728h-12.288v-104.448h47.104v24.064c9.216-10.24 15.872-21.504 19.456-33.792l14.848 2.56c-1.024 3.584-2.56 7.168-3.584 10.24h32.768z m-98.816 38.4h6.144v-29.696h-6.144v29.696z m0 41.984h6.144v-29.696h-6.144v29.696z m22.528-71.68h-6.144v29.696h6.144v-29.696z m-6.144 71.68h6.144v-29.696h-6.144v29.696z m27.136-45.568c-2.048-2.56-5.12-5.632-9.216-9.728v18.944c8.704-2.048 16.896-4.608 23.552-8.192-2.56-2.56-5.632-5.632-7.68-8.704-2.048 3.072-4.096 5.632-6.656 7.68z m38.4 38.4h-25.088v14.336h25.088v-14.336z m-23.552-57.856c3.072 5.12 7.168 9.728 11.776 13.312 5.12-4.096 8.704-8.704 11.776-14.336h-23.04s0 0.512-0.512 1.024z" fill="#F79E00" p-id="15849"></path></svg>