<?xml version="1.0" standalone="no"?><!DOCTYPE svg PUBLIC "-//W3C//DTD SVG 1.1//EN" "http://www.w3.org/Graphics/SVG/1.1/DTD/svg11.dtd"><svg t="1731460281020" class="icon" viewBox="0 0 1024 1024" version="1.1" xmlns="http://www.w3.org/2000/svg" p-id="11390" xmlns:xlink="http://www.w3.org/1999/xlink" width="200" height="200"><path d="M707.12179778 122.26177248H178.82564845c-53.25566108 0-95.86018873 42.60452767-95.8601887 95.86018874V533.39547232c0 53.25566108 42.60452767 95.86018873 95.8601887 95.86018875 12.7813595 0 25.56271598 10.65113344 25.56271595 25.56271597v53.25566105c0 8.5209043 10.65113344 14.91158557 17.04181169 10.65113042l95.86018869-59.64633933c27.69294206-17.04181167 59.64633931-27.69294206 93.72996258-27.69294209h298.23169655c53.25566108 0 95.86018873-42.60452767 95.86018868-95.86018866v-319.5339633c-2.13022606-51.125435-44.73475372-93.72996257-97.99041481-93.72996265z" fill="#FF9601" p-id="11391"></path><path d="M875.40968529 450.31664018H496.22938266c-34.08362332 0-61.7765654 27.69294206-61.77656539 61.77656838v238.58535714c0 34.08362332 27.69294206 61.7765654 61.77656539 61.77656539H683.68930793c29.82317117 0 57.51611319 8.5209043 80.9486031 23.43249288l63.90679442 40.47430161c8.5209043 6.39067826 21.30226381 0 21.30226384-10.65113344v-29.82316817c0-12.7813595 10.65113344-23.43248989 23.43248988-23.43249288 34.08362332 0 61.7765654-27.69294206 61.77656539-61.77656539V512.09320856c0-34.08362332-27.69294206-61.7765654-59.64633926-61.77656838z" fill="#FDC85F" p-id="11392"></path><path d="M551.61526978 301.2007934H238.47198771c-17.04181167 0-31.95339721-14.91158557-31.95339717-31.95339724s14.91158557-31.95339721 31.95339717-31.95339722h313.14328207c17.04181167 0 31.95339721 14.91158557 31.95339724 31.95339722-2.13022606 17.04181167-14.91158557 31.95339721-31.95339724 31.95339724zM404.6296491 503.57230121h-166.15766139c-17.04181167 0-31.95339721-14.91158557-31.95339717-31.95339423s14.91158557-31.95339721 31.95339717-31.95339726h166.15766139c17.04181167 0 31.95339721 14.91158557 31.95339426 31.95339726 0 19.17203773-14.91158557 31.95339721-31.95339426 31.95339423z" fill="#FFDB96" p-id="11393"></path><path d="M707.12179778 629.25566107H436.58304336V512.09320856c0-34.08362332 27.69294206-61.7765654 61.77656538-61.77656838h304.62237773V533.39547232c0 53.25566108-42.60452767 95.86018873-95.86018869 95.86018875z" fill="#F97C00" p-id="11394"></path></svg>