<?xml version="1.0" standalone="no"?><!DOCTYPE svg PUBLIC "-//W3C//DTD SVG 1.1//EN" "http://www.w3.org/Graphics/SVG/1.1/DTD/svg11.dtd"><svg t="1731634888889" class="icon" viewBox="0 0 1024 1024" version="1.1" xmlns="http://www.w3.org/2000/svg" p-id="4266" xmlns:xlink="http://www.w3.org/1999/xlink" width="200" height="200"><path d="M279.169699 930.984536c-16.133446 0-27.341718-5.196349-34.58468-10.520611-15.205307-11.17655-23.391756-29.723975-24.38334-55.098899-2.750647-71.184249-4.956895-189.407837-5.40408-218.492246-16.356526-23.839965-82.312704-120.254851-120.494305-179.862437-11.992125-18.627243-15.31787-40.196491-9.178033-59.175751 6.108115-18.691711 20.786419-33.305547 41.412179-41.23617 65.699328-25.102724 175.161369-64.627926 201.926966-74.28589 17.652032-23.296589 91.378174-120.414487 135.092791-175.784562 11.768021-14.934131 29.275767-23.50432 48.015573-23.50432 0.096191 0 0.159636 0 0.272199 0 19.682271 0.127913 38.661531 9.449209 50.749848 25.022906 43.123147 55.434543 114.65839 151.0973 131.990127 174.345794 26.989701 9.737782 137.538493 49.90255 202.710818 74.957179 27.293623 10.505261 37.878702 27.805276 41.939181 40.564881 5.468548 17.220197 2.494821 36.487006-8.18645 52.939723-38.581714 59.095933-106.535385 161.666006-122.57264 185.922457l-3.294023 132.390239c-0.255827 11.992125-10.761088 20.977777-22.080901 21.185508-11.879562-0.287549-21.249977-10.233062-20.977777-22.288632l3.421936-138.706085c0.096191-4.124947 1.358951-8.154727 3.64604-11.592013 0 0 81.944314-123.595946 125.883035-190.846606 3.405563-5.276167 4.6366-11.112082 3.166109-15.60542-2.142803-6.588045-10.008958-10.872628-16.244986-13.271258-73.90215-28.396747-206.628034-76.364225-207.970612-76.859505-3.965312-1.438769-7.402597-3.997034-9.945513-7.387247-0.847298-1.182942-86.485747-116.065436-135.363967-178.887226-3.948939-5.084808-10.505261-8.266267-17.044188-8.314363-3.629667-0.048095-9.769504 1.182942-14.470573 7.131421-49.326429 62.501496-137.523143 179.01514-138.402163 180.149986-2.558265 3.390213-6.011924 5.867638-9.91379 7.30743-1.295506 0.463558-132.694161 47.711652-207.075219 76.156494-5.835915 2.174526-13.286608 6.412037-15.71696 14.102183-2.094708 6.332219-0.479931 14.34266 4.365424 21.904892 43.25106 67.490114 122.637108 182.915983 123.404588 184.083575 2.462075 3.565199 3.805676 7.770987 3.869121 12.088316 0.048095 1.423419 2.382257 143.422504 5.516644 224.168526 0.463558 10.889001 2.910283 18.739806 6.763031 21.633716 4.02978 2.910283 12.503778 2.910283 23.184025-0.079818 76.747965-21.505803 210.417337-62.310138 211.728192-62.677505 4.109598-1.26276 8.538467-1.310855 12.647041 0 1.375324 0.463558 135.76408 42.771129 211.344452 64.068178 11.464099 3.229554 18.195408 15.189957 15.013949 26.78197-3.229554 11.576663-15.158235 18.339694-26.574239 15.141862-66.722634-18.755156-178.6314-53.723575-206.29239-62.389956-27.565822 8.410554-138.802276 42.11519-206.340485 61.046355C295.07904 929.897785 286.588669 930.984536 279.169699 930.984536L279.169699 930.984536z" p-id="4267"></path></svg>