<?xml version="1.0" standalone="no"?><!DOCTYPE svg PUBLIC "-//W3C//DTD SVG 1.1//EN" "http://www.w3.org/Graphics/SVG/1.1/DTD/svg11.dtd"><svg t="1731460380702" class="icon" viewBox="0 0 1024 1024" version="1.1" xmlns="http://www.w3.org/2000/svg" p-id="18794" xmlns:xlink="http://www.w3.org/1999/xlink" width="200" height="200"><path d="M863.232 31.232L164.352 29.184c-76.8 0-140.8 66.048-140.8 147.968l-1.536 543.232c0 82.432 61.952 147.968 138.752 147.968l233.984 2.048 115.2 124.416 117.248-122.368h232.448c76.8 0 140.8-66.048 140.8-147.968l2.048-543.232c-0.512-82.432-62.464-148.48-139.264-150.016zM281.6 493.568c-32.768 0-58.368-25.6-58.368-58.368s25.6-58.368 58.368-58.368 58.368 25.6 58.368 58.368c-1.536 32.768-27.136 58.368-58.368 58.368z m230.4-3.584c-32.768 0-58.368-25.6-58.368-58.368s25.6-58.368 58.368-58.368 58.368 25.6 58.368 58.368-25.6 58.368-58.368 58.368z m232.448-1.536c-32.768 0-58.368-25.6-58.368-58.368s25.6-58.368 58.368-58.368 58.368 25.6 58.368 58.368c-2.048 32.768-27.648 58.368-58.368 58.368z" fill="#FC7B10" p-id="18795"></path></svg>