<?xml version="1.0" standalone="no"?><!DOCTYPE svg PUBLIC "-//W3C//DTD SVG 1.1//EN" "http://www.w3.org/Graphics/SVG/1.1/DTD/svg11.dtd"><svg t="1731461149712" class="icon" viewBox="0 0 1024 1024" version="1.1" xmlns="http://www.w3.org/2000/svg" p-id="45334" xmlns:xlink="http://www.w3.org/1999/xlink" width="200" height="200"><path d="M155.691886 587.688229h63.765943v-22.016h-63.765943v22.016zM387.371886 587.688229h63.758628v-22.023315h-63.758628v22.023315zM425.757257 527.140571c-7.1168-8.872229-14.292114-17.7152-21.269943-26.697142-1.696914-2.2016-3.503543-2.925714-6.209828-2.911086-30.705371 0.087771-61.410743 0.058514-92.123429 0.058514h-4.3008c-31.114971 0-62.215314 0.029257-93.315657-0.058514-2.698971-0.014629-4.498286 0.7168-6.217143 2.911086-6.970514 8.989257-14.145829 17.832229-21.269943 26.704457-4.000914 4.995657-8.031086 9.9328-12.587885 15.594057H438.337829c-4.549486-5.653943-8.572343-10.613029-12.580572-15.601372z" fill="#36ab60" p-id="45335"></path><path d="M512 0C229.229714 0 0 229.2224 0 511.992686c0 282.7776 229.229714 512 512 512 282.748343 0 512-229.2224 512-512C1024 229.2224 794.748343 0 512 0z m85.101714 256.256c26.455771 0.109714 47.857371 21.621029 47.586743 47.784229-0.299886 26.389943-21.957486 47.579429-48.186514 47.140571-26.346057-0.446171-47.301486-21.723429-47.0016-47.733029 0.299886-26.294857 21.496686-47.316114 47.601371-47.191771zM270.460343 451.152457c0.058514-0.694857 0.087771-1.404343 0.226743-2.091886 0.855771-4.139886 3.284114-7.241143 6.531657-7.306971 8.528457-0.160914 17.071543-0.095086 25.680457-0.073143 8.967314-0.014629 17.832229-0.1024 26.697143 0.073143 3.262171 0.065829 5.690514 3.159771 6.538971 7.306971 0.146286 0.687543 0.168229 1.397029 0.241372 2.091886 0.541257 6.524343 1.097143 13.048686 1.696914 20.0192h-69.332114l1.718857-20.0192z m221.937371 268.141714H406.198857v-44.639085H306.088229v0.007314H200.623543v44.639086H114.424686v-3.657143c0-40.733257-0.029257-81.473829 0.073143-122.185143 0-1.696914 0.826514-3.598629 1.813942-5.032229 9.530514-13.7216 19.185371-27.370057 29.410743-41.925485h-16.932571c0-7.760457 0.1536-15.016229-0.065829-22.272-0.087771-3.028114 0.731429-4.1472 3.898515-4.103315 10.327771 0.1536 20.655543 0.146286 30.983314-0.029257a6.699886 6.699886 0 0 0 4.4032-2.026057 3285.021257 3285.021257 0 0 0 31.744-36.783543c1.528686-1.792 3.101257-2.4576 5.397943-2.442971 32.402286 0.058514 64.797257 0.036571 97.199543 0.043886 0.336457 0 0.687543 0.036571 1.031314 0.058514 0.3584-0.029257 0.731429-0.058514 1.082514-0.058514 32.387657-0.014629 64.797257 0.014629 97.184914-0.058515 2.311314 0 3.883886 0.658286 5.412572 2.4576a3209.479314 3209.479314 0 0 0 31.729371 36.783543 6.751086 6.751086 0 0 0 4.417829 2.011429c10.313143 0.168229 20.640914 0.197486 30.976 0.036571 3.1744-0.0512 3.9936 1.067886 3.8912 4.110629-0.197486 7.241143-0.073143 14.511543-0.073143 22.272h-16.925257c10.24 14.555429 19.894857 28.196571 29.410743 41.925485 0.987429 1.426286 1.813943 3.328 1.813943 5.0176 0.1024 40.725943 0.087771 81.466514 0.087771 122.199772l0.007314 3.649828z m223.663543-173.019428c-2.435657-2.976914-4.352-6.421943-6.334171-9.749943-19.112229-31.824457-38.173257-63.6928-57.256229-95.5392-0.497371-0.841143-1.067886-1.653029-2.479543-3.781486 0 26.0608-0.021943 50.527086 0.007315 74.993372 0.073143 41.552457 0.197486 83.090286 0.285257 124.642743 0.087771 42.561829-0.270629 85.130971 0.431543 127.685485 0.314514 18.446629-13.2608 26.894629-27.925943 26.975086-13.012114 0.065829-28.511086-6.495086-28.430629-27.150629 0.270629-62.325029 0.1024-124.650057 0.1024-186.9824 0-1.506743 0.570514-3.466971-0.160914-4.4544-1.323886-1.777371-3.342629-3.905829-5.2224-4.081371-1.543314-0.131657-3.730286 2.121143-4.827429 3.832686-0.782629 1.192229-0.241371 3.2768-0.241371 4.9664-0.014629 62.1568-0.014629 124.3136-0.014629 186.455771 0 19.360914-13.202286 30.317714-32.146285 26.748343-11.373714-2.157714-19.170743-10.3424-19.368229-22.008686-0.416914-22.286629-0.168229-44.587886-0.182857-66.874514 0-1.514057 0.146286-3.028114 0.146286-4.542171 0.117029-49.327543 0.197486-98.640457 0.299885-147.960686 0.095086-41.706057-0.087771-83.419429 0.453486-125.140114 0.190171-15.594057-5.9904-26.770286-18.819657-35.093943-31.0272-20.128914-61.9008-40.455314-92.810972-60.7232-9.603657-6.290286-19.287771-12.463543-28.715885-19.002515-7.160686-4.973714-10.0864-12.222171-8.696686-20.772571 1.411657-8.725943 6.575543-14.716343 15.125943-17.276343 7.109486-2.121143 13.560686-0.351086 19.712 3.649829 23.639771 15.367314 47.301486 30.654171 71.094857 45.787428 15.806171 10.064457 31.861029 19.704686 47.681829 29.7472 5.829486 3.708343 12.032 5.032229 18.753828 5.024915 24.663771-0.036571 49.334857 0.351086 73.969372-0.182858 12.880457-0.270629 22.257371 4.622629 28.767085 15.294172 13.077943 21.482057 26.024229 43.037257 38.919315 64.636343 16.354743 27.384686 32.6144 54.820571 48.917942 82.241828 1.1264 1.887086 2.289371 3.752229 3.313372 5.675886 5.588114 10.496 3.145143 21.2992-6.217143 27.662629-8.974629 6.0928-20.823771 4.205714-28.130743-4.703086z m59.984457 252.584228a20.487314 20.487314 0 0 1-20.545828-20.611657c0.029257-11.4176 9.245257-20.728686 20.545828-20.728685 11.242057 0 20.655543 9.457371 20.626286 20.728685a20.567771 20.567771 0 0 1-20.626286 20.611657z m80.9472-25.4464c-16.471771 3.408457-33.038629 6.458514-50.176 9.757258 0.877714-13.436343-3.364571-24.129829-14.628571-31.041829-11.344457-6.9632-22.791314-5.961143-34.567314 1.2288l-4.542172-24.071314c-6.2464-32.9728-12.522057-65.9456-18.709943-98.911086-1.762743-9.391543-0.658286-11.402971 8.272457-15.645257l-7.745828-42.042514c-0.270629-1.4848-0.570514-2.9696-0.797257-4.461715-0.863086-5.551543 1.038629-8.923429 5.441828-9.6768 4.373943-0.746057 7.416686 1.667657 8.4992 7.2192 1.9456 10.101029 3.6864 20.253257 5.522286 30.3616 0.980114 5.302857 1.967543 10.591086 3.079314 16.508343 8.8576-1.594514 17.408-3.130514 25.9584-4.7104 6.794971-1.258057 13.568-2.625829 20.370286-3.84 19.126857-3.357257 30.997943 4.703086 34.808686 23.844572 3.452343 17.349486 6.663314 34.7648 9.940114 52.158171 4.878629 25.848686 9.742629 51.712 14.555429 77.575314 0.453486 2.450286 0.504686 5.010286 0.694857 7.519086 0.343771 4.417829-2.040686 7.402057-5.975772 8.228571z" fill="#36ab60" p-id="45336"></path><path d="M338.0736 471.171657c-0.599771-6.970514-1.155657-13.494857-1.696914-20.0192-0.073143-0.694857-0.1024-1.404343-0.241372-2.091886-0.841143-4.139886-3.269486-7.241143-6.538971-7.306971-8.864914-0.175543-17.737143-0.095086-26.697143-0.073143-8.608914-0.021943-17.152-0.087771-25.680457 0.073143-3.240229 0.065829-5.668571 3.167086-6.531657 7.306971-0.146286 0.680229-0.168229 1.397029-0.226743 2.091886l-1.711543 20.0192H338.0736zM490.503314 588.426971c-9.5232-13.728914-19.170743-27.370057-29.410743-41.925485h16.925258c0-7.760457-0.131657-15.030857 0.073142-22.272 0.1024-3.042743-0.724114-4.154514-3.8912-4.110629-10.335086 0.160914-20.662857 0.138971-30.976-0.036571a6.765714 6.765714 0 0 1-4.417828-2.011429 3273.289143 3273.289143 0 0 1-31.729372-36.783543c-1.528686-1.799314-3.101257-2.4576-5.412571-2.4576-32.387657 0.073143-64.797257 0.043886-97.184914 0.058515-0.3584 0-0.731429 0.029257-1.082515 0.058514-0.343771-0.021943-0.694857-0.058514-1.031314-0.058514-32.402286-0.007314-64.797257 0.014629-97.199543-0.043886-2.296686-0.014629-3.869257 0.650971-5.397943 2.442971a3220.772571 3220.772571 0 0 1-31.744 36.783543 6.685257 6.685257 0 0 1-4.4032 2.026057c-10.327771 0.168229-20.655543 0.182857-30.983314 0.029257-3.1744-0.0512-3.986286 1.067886-3.898514 4.103315 0.212114 7.255771 0.065829 14.511543 0.065828 22.272h16.932572c-10.225371 14.555429-19.887543 28.203886-29.410743 41.925485-0.987429 1.426286-1.813943 3.328-1.813943 5.032229-0.1024 40.711314-0.073143 81.451886-0.073143 122.185143v3.657143h86.198857v-44.639086H306.102857v-0.007314h100.110629v44.639085h86.198857v-3.649828c0-40.733257 0.014629-81.473829-0.087772-122.199772-0.007314-1.6896-0.841143-3.584-1.821257-5.0176z m-271.045485-0.738742h-63.765943v-22.016h63.765943v22.016z m81.269028-44.946286H168.469943c4.5568-5.653943 8.586971-10.5984 12.587886-15.594057 7.131429-8.879543 14.299429-17.7152 21.269942-26.704457 1.711543-2.2016 3.510857-2.925714 6.217143-2.911086 31.100343 0.087771 62.200686 0.058514 93.315657 0.058514h4.3008c30.712686 0 61.410743 0.029257 92.123429-0.058514 2.706286-0.014629 4.5056 0.7168 6.209829 2.911086 6.977829 8.989257 14.160457 17.832229 21.269942 26.697142 4.008229 4.988343 8.031086 9.940114 12.5952 15.601372H300.726857z m150.403657 44.946286h-63.758628v-22.023315h63.758628v22.023315z" fill="#ffffff" p-id="45337"></path><path d="M750.3872 523.322514c-1.024-1.930971-2.186971-3.796114-3.313371-5.675885-16.303543-27.421257-32.555886-54.857143-48.917943-82.241829a8692.362971 8692.362971 0 0 0-38.919315-64.636343c-6.509714-10.671543-15.886629-15.5648-28.767085-15.294171-24.634514 0.533943-49.3056 0.146286-73.969372 0.182857-6.729143 0-12.931657-1.316571-18.753828-5.024914-15.813486-10.049829-31.868343-19.682743-47.681829-29.7472a8833.755429 8833.755429 0 0 1-71.094857-45.787429c-6.158629-3.9936-12.609829-5.763657-19.712-3.649829-8.5504 2.56-13.714286 8.5504-15.125943 17.276343-1.3824 8.5504 1.536 15.806171 8.696686 20.772572 9.428114 6.538971 19.112229 12.704914 28.715886 19.002514 30.917486 20.267886 61.783771 40.594286 92.810971 60.7232 12.829257 8.323657 19.017143 19.499886 18.819657 35.093943-0.533943 41.720686-0.3584 83.434057-0.453486 125.140114-0.1024 49.320229-0.182857 98.633143-0.299885 147.960686 0 1.514057-0.146286 3.028114-0.146286 4.542171 0.014629 22.286629-0.226743 44.587886 0.182857 66.874515 0.197486 11.666286 8.001829 19.850971 19.368229 22.008685 18.944 3.562057 32.146286-7.387429 32.146285-26.748343 0-62.142171 0-124.298971 0.014629-186.455771 0-1.682286-0.541257-3.774171 0.241371-4.9664 1.097143-1.711543 3.284114-3.964343 4.827429-3.832686 1.879771 0.168229 3.898514 2.296686 5.2224 4.081372 0.738743 0.994743 0.160914 2.947657 0.160914 4.4544 0 62.332343 0.168229 124.657371-0.1024 186.9824-0.087771 20.655543 15.4112 27.216457 28.430629 27.150628 14.672457-0.080457 28.240457-8.521143 27.925943-26.975085-0.702171-42.554514-0.343771-85.123657-0.431543-127.685486-0.087771-41.552457-0.212114-83.090286-0.285257-124.642743-0.029257-24.4736-0.007314-48.932571-0.007315-74.993371 1.404343 2.128457 1.982171 2.933029 2.479543 3.781485 19.082971 31.8464 38.144 63.714743 57.256229 95.5392 1.982171 3.328 3.898514 6.773029 6.334171 9.749943 7.306971 8.916114 19.1488 10.8032 28.1088 4.717714 9.376914-6.378057 11.819886-17.188571 6.239086-27.677257z" fill="#ffffff" p-id="45338"></path><path d="M847.7184 680.082286c-3.2768-17.393371-6.495086-34.808686-9.940114-52.158172-3.810743-19.141486-15.681829-27.201829-34.808686-23.844571-6.802286 1.214171-13.575314 2.589257-20.370286 3.84-8.5504 1.579886-17.1008 3.115886-25.9584 4.7104-1.111771-5.917257-2.0992-11.205486-3.079314-16.508343-1.835886-10.115657-3.576686-20.267886-5.522286-30.3616-1.082514-5.558857-4.125257-7.965257-8.4992-7.2192-4.410514 0.760686-6.304914 4.125257-5.441828 9.6768 0.226743 1.492114 0.526629 2.976914 0.797257 4.461714l7.745828 42.042515c-8.930743 4.242286-10.0352 6.2464-8.272457 15.645257 6.187886 32.9728 12.456229 65.9456 18.709943 98.911085l4.542172 24.071315c11.768686-7.189943 23.222857-8.192 34.567314-1.2288 11.264 6.912 15.506286 17.605486 14.628571 31.041828 17.144686-3.298743 33.704229-6.3488 50.176-9.757257 3.935086-0.826514 6.319543-3.810743 5.975772-8.228571-0.182857-2.516114-0.241371-5.0688-0.694857-7.519086-4.8128-25.856-9.6768-51.719314-14.555429-77.575314zM596.501943 351.1808c26.229029 0.438857 47.886629-20.750629 48.186514-47.140571 0.270629-26.1632-21.130971-47.674514-47.586743-47.784229-26.097371-0.124343-47.301486 20.896914-47.601371 47.191771-0.299886 26.0096 20.655543 47.286857 47.0016 47.733029z" fill="#ffffff" p-id="45339"></path><path d="M776.045714 757.511314c-11.300571 0-20.516571 9.311086-20.545828 20.728686a20.48 20.48 0 0 0 20.545828 20.611657 20.567771 20.567771 0 0 0 20.626286-20.611657c0.029257-11.271314-9.384229-20.728686-20.626286-20.728686z" fill="#ffffff" p-id="45340"></path></svg>