<?xml version="1.0" standalone="no"?><!DOCTYPE svg PUBLIC "-//W3C//DTD SVG 1.1//EN" "http://www.w3.org/Graphics/SVG/1.1/DTD/svg11.dtd"><svg t="1731460999333" class="icon" viewBox="0 0 1784 1024" version="1.1" xmlns="http://www.w3.org/2000/svg" p-id="28234" xmlns:xlink="http://www.w3.org/1999/xlink" width="348.4375" height="200"><path d="M1244.315152 842.472727L744.727273 667.151515c-96.193939 55.854545-190.836364 111.709091-285.478788 167.563637-96.193939 55.854545-190.836364 111.709091-285.478788 167.563636C145.842424 882.812121 116.363636 760.242424 88.436364 639.224242 60.509091 518.206061 32.581818 395.636364 4.654545 273.066667c69.818182-38.787879 141.187879-77.575758 211.006061-117.915152 69.818182-38.787879 141.187879-77.575758 211.006061-117.915151l386.327272 169.115151c62.060606-32.581818 124.121212-66.715152 186.181819-99.29697 62.060606-32.581818 124.121212-66.715152 186.181818-99.296969 99.29697 93.090909 195.490909 186.181818 294.787879 279.272727s195.490909 186.181818 294.787878 277.721212c-88.436364 46.545455-176.872727 91.539394-263.757575 138.084849-91.539394 48.09697-178.424242 93.090909-266.860606 139.636363zM1185.357576 1.551515l-372.363637 198.59394L426.666667 31.030303 0 269.963636l170.666667 743.175758 575.612121-338.230303 498.036364 172.218182 538.375757-279.272728L1185.357576 1.551515z" fill="#899AB5" p-id="28235"></path><path d="M777.309091 473.212121c-20.169697 3.10303-38.787879 4.654545-60.509091 6.206061-20.169697 3.10303-40.339394 4.654545-60.509091 7.757576 20.169697 23.272727 40.339394 48.09697 58.957576 72.921212 44.993939-9.309091 89.987879-18.618182 133.430303-27.927273 6.206061-1.551515 13.963636-3.10303 20.169697-4.654545-31.030303-18.618182-62.060606-37.236364-91.539394-54.303031M1160.533333 704.387879v-3.103031l-15.515151 6.206061h-1.551515c0-1.551515-1.551515-1.551515-3.103031-3.10303 0 0 0 1.551515 1.551516 1.551515-52.751515-20.169697-103.951515-43.442424-156.703031-63.612121-12.412121-4.654545-24.824242-10.860606-37.236363-15.515152l-35.684849 9.309091c-7.757576 3.10303-17.066667 4.654545-24.824242 7.757576 20.169697 7.757576 40.339394 17.066667 62.060606 24.824242 76.024242 31.030303 153.6 62.060606 231.175757 93.090909h1.551515c4.654545-1.551515 9.309091-4.654545 13.963637-6.20606l-35.684849-51.2z" fill="#708597" p-id="28236"></path><path d="M1014.690909 412.70303c-3.10303-31.030303-6.206061-62.060606-10.860606-93.090909-9.309091-60.509091-20.169697-121.018182-31.030303-178.424242 10.860606-6.206061 18.618182-10.860606 29.478788-15.515152 1.551515 6.206061 3.10303 12.412121 4.654545 17.066667 3.10303 12.412121 6.206061 26.375758 9.309091 38.787879 1.551515 6.206061 3.10303 13.963636 4.654546 20.169697 10.860606-4.654545 20.169697-9.309091 31.030303-13.963637 6.206061-3.10303 13.963636-6.206061 20.169697-9.309091L1058.133333 93.090909c3.10303-3.10303 7.757576-4.654545 10.860606-6.206061-4.654545 3.10303-9.309091 4.654545-12.412121 7.757576l-17.066666 9.309091c-13.963636 7.757576-27.927273 15.515152-43.442425 23.272727-44.993939 26.375758-91.539394 51.2-138.084848 76.024243 49.648485 71.369697 97.745455 141.187879 147.393939 212.557576 3.10303-1.551515 6.206061-3.10303 9.309091-3.103031M1070.545455 91.539394c7.757576-3.10303 13.963636-7.757576 21.721212-10.860606 6.206061 27.927273 9.309091 55.854545 13.963636 83.781818l79.127273-35.684848c7.757576-17.066667 13.963636-32.581818 20.169697-49.648485l-38.787879-40.339394c-32.581818 17.066667-63.612121 35.684848-96.193939 52.751515M1196.218182 777.309091l26.375757 41.890909c3.10303-1.551515 7.757576-4.654545 12.412122-7.757576L1210.181818 771.10303c-6.206061 3.10303-9.309091 4.654545-13.963636 6.206061M1621.333333 482.521212c1.551515 1.551515 3.10303 4.654545 4.654546 6.206061-13.963636 1.551515-26.375758 3.10303-40.339394 4.654545l-3.10303 63.612121c31.030303-4.654545 62.060606-9.309091 96.193939-17.066666 7.757576 7.757576 15.515152 13.963636 23.272727 21.721212-110.157576 23.272727-203.248485 35.684848-282.375757 35.684848-43.442424 1.551515-83.781818-1.551515-117.915152-6.20606l43.442424 43.442424c27.927273 26.375758 52.751515 52.751515 80.678788 79.127273 113.260606-60.509091 234.278788-124.121212 280.824243-148.945455 0 0-34.133333-32.581818-85.333334-82.230303M1475.490909 418.909091v54.30303c41.890909-6.206061 83.781818-9.309091 125.672727-15.515151-13.963636-15.515152-29.478788-34.133333-46.545454-51.2-26.375758 3.10303-52.751515 7.757576-79.127273 12.412121M1307.927273 732.315152c-20.169697 12.412121-41.890909 23.272727-63.612121 35.684848l23.272727 32.581818c32.581818-17.066667 76.024242-40.339394 121.018182-63.612121l-32.581819-32.581818c-15.515152 9.309091-32.581818 18.618182-48.096969 27.927273M1306.375758 338.230303c-1.551515 26.375758-1.551515 51.2-3.103031 77.575758l102.4-13.963637c43.442424-6.206061 85.333333-12.412121 128.775758-18.618182-35.684848-32.581818-72.921212-68.266667-111.709091-103.951515-38.787879 20.169697-77.575758 38.787879-116.363636 58.957576M1233.454545 93.090909c-29.478788 66.715152-60.509091 136.533333-97.745454 206.351515-17.066667 34.133333-35.684848 68.266667-55.854546 103.951515 9.309091 3.10303 18.618182 6.206061 26.375758 10.860606 29.478788-15.515152 60.509091-31.030303 89.987879-46.545454 69.818182-37.236364 139.636364-74.472727 211.00606-110.157576-65.163636-63.612121-130.327273-124.121212-179.975757-170.666667 3.10303 1.551515 4.654545 4.654545 6.20606 6.206061M1079.854545 522.860606l77.575758 102.4v3.10303l7.757576 9.309091c13.963636-12.412121 26.375758-24.824242 38.787879-37.236363l31.030303-31.030303c-29.478788-6.206061-54.30303-15.515152-82.230303-26.375758-23.272727-10.860606-43.442424-20.169697-60.509091-29.478788-4.654545 1.551515-7.757576 6.206061-12.412122 9.309091M831.612121 220.315152c4.654545-3.10303 10.860606-4.654545 15.515152-7.757576-9.309091 4.654545-18.618182 9.309091-26.375758 13.963636l100.848485 141.187879 13.963636-4.654546c-34.133333-48.09697-69.818182-94.642424-103.951515-142.739393" fill="#9DAABE" p-id="28237"></path><path d="M1435.151515 569.406061c1.551515-44.993939 1.551515-89.987879 1.551515-134.981819-6.206061 1.551515-13.963636 1.551515-20.169697 3.103031-38.787879 6.206061-76.024242 10.860606-114.812121 15.515151-1.551515 35.684848-6.206061 69.818182-10.860606 105.503031 40.339394 7.757576 86.884848 9.309091 138.084849 9.30909 3.10303 1.551515 4.654545 1.551515 6.20606 1.551516M1086.060606 314.957576c-15.515152 9.309091-29.478788 20.169697-44.993939 29.478788 3.10303 23.272727 4.654545 46.545455 7.757575 69.818181h6.206061c18.618182-38.787879 37.236364-77.575758 54.30303-116.363636-7.757576 6.206061-15.515152 10.860606-23.272727 17.066667M1176.048485 164.460606c-20.169697 9.309091-41.890909 18.618182-63.612121 27.927273-31.030303 13.963636-60.509091 27.927273-91.539394 41.890909 4.654545 24.824242 9.309091 48.09697 13.963636 72.921212v1.551515c15.515152-9.309091 32.581818-17.066667 48.09697-26.375757l49.648485-26.375758c15.515152-31.030303 31.030303-62.060606 43.442424-91.539394M1162.084848 524.412121c26.375758 12.412121 57.406061 24.824242 94.642425 35.684849 4.654545-31.030303 7.757576-62.060606 10.860606-93.090909 1.551515-29.478788 3.10303-60.509091 4.654545-89.987879-18.618182 9.309091-37.236364 18.618182-54.30303 27.927273-31.030303 15.515152-60.509091 31.030303-91.539394 48.096969 4.654545 13.963636 0 31.030303-7.757576 46.545455 13.963636 9.309091 27.927273 15.515152 43.442424 24.824242M1225.69697 634.569697c-12.412121 13.963636-26.375758 27.927273-38.787879 40.339394l46.545454 66.715151c20.169697-10.860606 41.890909-23.272727 60.509091-34.133333 15.515152-9.309091 31.030303-17.066667 46.545455-26.375757l-26.375758-26.375758c-18.618182-18.618182-37.236364-38.787879-54.30303-57.406061-10.860606 12.412121-23.272727 24.824242-34.133333 37.236364M608.193939 645.430303c-52.751515 10.860606-103.951515 21.721212-156.70303 31.030303-18.618182 3.10303-35.684848 7.757576-54.30303 10.860606-10.860606 1.551515-20.169697 3.10303-31.030303 4.654546-27.927273 6.206061-55.854545 9.309091-82.230303 13.963636-21.721212 20.169697-44.993939 41.890909-68.266667 62.060606h1.551515c-20.169697 18.618182-40.339394 37.236364-62.060606 57.406061l31.030303 128.775757c88.436364-51.2 178.424242-103.951515 266.860606-155.151515 21.721212-12.412121 43.442424-24.824242 63.612121-38.787879l80.678788-100.848485c3.10303-4.654545 6.206061-9.309091 10.860606-13.963636M404.945455 308.751515c-1.551515 1.551515-3.10303 1.551515-3.103031 1.551515l-102.4 46.545455c-6.206061 20.169697-12.412121 38.787879-20.169697 57.40606 31.030303-13.963636 63.612121-27.927273 94.642425-41.890909 10.860606-21.721212 21.721212-43.442424 31.030303-63.612121M68.266667 449.939394c7.757576 34.133333 15.515152 66.715152 24.824242 99.29697 21.721212-44.993939 41.890909-89.987879 62.060606-134.981819-29.478788 12.412121-58.957576 23.272727-86.884848 35.684849M345.987879 440.630303c6.206061-10.860606 13.963636-23.272727 20.169697-34.133333-34.133333 13.963636-68.266667 26.375758-100.848485 38.787878-7.757576 18.618182-17.066667 38.787879-24.824243 57.406061 29.478788-17.066667 107.054545-62.060606 105.503031-62.060606M221.866667 462.351515c-26.375758 10.860606-52.751515 20.169697-80.678788 29.478788-15.515152 27.927273-29.478788 57.406061-44.99394 85.333333 32.581818-17.066667 63.612121-34.133333 96.19394-51.2 9.309091-20.169697 20.169697-41.890909 29.478788-63.612121M386.327273 462.351515c-1.551515 0-1.551515 0 0 0-24.824242 3.10303-44.993939 6.206061-62.060606 9.309091-76.024242 41.890909-152.048485 80.678788-226.521212 122.569697 1.551515 6.206061 3.10303 13.963636 6.20606 20.169697l10.860606 40.339394c52.751515-37.236364 105.50303-72.921212 156.703031-110.157576 35.684848-26.375758 74.472727-54.30303 114.812121-82.230303M330.472727 575.612121l-77.575757 4.654546c-44.993939 34.133333-91.539394 68.266667-138.084849 102.4l29.478788 121.018181c40.339394-37.236364 235.830303-217.212121 249.793939-231.175757-20.169697 0-41.890909 1.551515-63.612121 3.10303M327.369697 674.909091c35.684848-6.206061 72.921212-12.412121 110.157576-18.618182 31.030303-31.030303 63.612121-60.509091 94.642424-91.539394l83.781818-82.230303c-18.618182-7.757576-38.787879-13.963636-58.957576-18.618182-60.509091 57.406061-122.569697 114.812121-186.181818 172.218182-13.963636 12.412121-27.927273 26.375758-43.442424 38.787879" fill="#9DAABE" p-id="28238"></path><path d="M269.963636 144.290909l18.618182-9.309091-18.618182 9.309091" fill="#A6B8D5" p-id="28239"></path><path d="M322.715152 558.545455l34.133333-1.551516c18.618182-1.551515 37.236364-3.10303 54.30303-4.654545l24.824243-1.551515c27.927273-31.030303 57.406061-60.509091 85.333333-91.539394-10.860606-1.551515-20.169697-3.10303-31.030303-3.10303-18.618182-1.551515-37.236364-1.551515-55.854546 0-26.375758 21.721212-52.751515 43.442424-79.127272 66.715151-15.515152 12.412121-31.030303 26.375758-46.545455 38.787879l13.963637-3.10303z" fill="#A8C8AB" p-id="28240"></path><path d="M172.218182 375.466667c15.515152-35.684848 32.581818-72.921212 46.545454-107.054546-29.478788 10.860606-58.957576 23.272727-88.436363 34.133334l-86.884849 34.133333c-1.551515-9.309091-4.654545-15.515152-6.20606-24.824243 65.163636-24.824242 128.775758-49.648485 193.939394-76.024242 12.412121-31.030303 26.375758-62.060606 37.236363-93.090909-13.963636 7.757576-26.375758 15.515152-40.339394 23.272727L27.927273 277.721212c4.654545 21.721212 10.860606 43.442424 15.515151 65.163636 6.206061 26.375758 12.412121 51.2 18.618182 76.024243 1.551515 9.309091 4.654545 15.515152 6.206061 24.824242-1.551515-9.309091-3.10303-17.066667-4.654546-24.824242 35.684848-13.963636 72.921212-29.478788 108.606061-43.442424M144.290909 453.042424c26.375758-10.860606 55.854545-20.169697 82.230303-31.030303l23.272727-55.854545c-24.824242 9.309091-52.751515 18.618182-77.575757 29.478788l-27.927273 57.40606z" fill="#9DAABE" p-id="28241"></path><path d="M650.084848 290.133333c-1.551515 0-1.551515-1.551515-3.10303-1.551515v1.551515c10.860606 23.272727 21.721212 44.993939 32.581818 68.266667 24.824242 9.309091 48.09697 18.618182 72.921212 27.927273-15.515152-23.272727-29.478788-46.545455-44.993939-71.369697h1.551515c-20.169697-7.757576-40.339394-17.066667-58.957576-24.824243" fill="#708597" p-id="28242"></path><path d="M1185.357576 780.412121s0 1.551515 0 0c1.551515 1.551515 1.551515 1.551515 0 0 1.551515 1.551515 1.551515 0 0 0" fill="#9DAABE" p-id="28243"></path><path d="M896.775758 598.884848c-23.272727-10.860606-44.993939-20.169697-66.715152-29.478787h-1.551515c-26.375758 4.654545-51.2 7.757576-77.575758 10.860606 1.551515 0 3.10303 1.551515 4.654546 1.551515 26.375758 12.412121 52.751515 23.272727 80.678788 35.684848 21.721212-6.206061 41.890909-12.412121 60.509091-18.618182" fill="#A8C8AB" p-id="28244"></path><path d="M710.593939 259.10303c24.824242 12.412121 49.648485 26.375758 72.921213 38.787879 3.10303-12.412121 4.654545-26.375758 7.757575-38.787879-20.169697-10.860606-40.339394-23.272727-60.509091-32.581818-20.169697-10.860606-40.339394-23.272727-60.509091-32.581818-4.654545 4.654545-10.860606 7.757576-15.515151 12.412121-6.206061 4.654545-10.860606 9.309091-17.066667 13.963637 18.618182 10.860606 37.236364 20.169697 55.854546 31.030303 4.654545 1.551515 10.860606 4.654545 17.066666 7.757575M785.066667 403.393939c24.824242 10.860606 49.648485 20.169697 74.472727 31.030303 0 0-44.993939-74.472727-46.545455-76.024242-7.757576-3.10303-15.515152-7.757576-23.272727-10.860606-15.515152-6.206061-31.030303-12.412121-46.545454-20.169697 0 0 0 1.551515 1.551515 1.551515h-1.551515c13.963636 24.824242 26.375758 49.648485 41.890909 74.472727-1.551515-1.551515 0 0 0 0" fill="#708597" p-id="28245"></path><path d="M1610.472727 462.351515L1629.090909 480.969697c-4.654545-6.206061-10.860606-10.860606-18.618182-18.618182M1408.775758 260.654545L1427.393939 279.272727c-6.206061-6.206061-13.963636-12.412121-18.618181-18.618182" fill="#A6B8D5" p-id="28246"></path><path d="M857.987879 192.387879l-9.309091 9.309091c3.10303-1.551515 6.206061-4.654545 9.309091-9.309091" fill="#899AB5" p-id="28247"></path><path d="M1205.527273 77.575758l18.618182 18.618181c-4.654545-6.206061-12.412121-13.963636-18.618182-18.618181M1545.309091 386.327273h-1.551515l18.618182 18.618182c-6.206061-7.757576-12.412121-12.412121-17.066667-18.618182" fill="#A6B8D5" p-id="28248"></path><path d="M1512.727273 566.30303c4.654545 0 10.860606-1.551515 17.066666-1.551515 6.206061 0 12.412121-1.551515 20.169697-1.551515 0-9.309091 1.551515-18.618182 1.551516-27.927273 0-10.860606 1.551515-21.721212 1.551515-32.581818-3.10303 0-6.206061 0-9.309091 1.551515l-65.163637 6.206061h-1.551515c0 20.169697 0 40.339394-1.551515 60.509091h1.551515c0-1.551515 18.618182-3.10303 35.684849-4.654546" fill="#A8C8AB" p-id="28249"></path><path d="M643.878788 276.169697c44.993939 18.618182 89.987879 37.236364 133.430303 55.854545 51.2 21.721212 100.848485 41.890909 152.048485 63.612122 4.654545 7.757576 9.309091 13.963636 13.963636 21.721212-32.581818-12.412121-63.612121-24.824242-94.642424-38.787879l46.545454 69.818182c12.412121 4.654545 23.272727 9.309091 35.684849 13.963636-9.309091-20.169697 0-31.030303 26.375757-24.824242 4.654545 7.757576 9.309091 13.963636 15.515152 21.721212-10.860606 0-13.963636 6.206061-10.860606 15.515151l4.654545 9.309091c3.10303 3.10303 6.206061 7.757576 9.309091 12.412121l7.757576 7.757576c7.757576 7.757576 18.618182 15.515152 29.478788 23.272728-4.654545 1.551515-10.860606 3.10303-15.515152 3.10303-20.169697 4.654545-40.339394 9.309091-62.060606 13.963636l37.236364 13.963637c31.030303 10.860606 58.957576 21.721212 89.987879 32.581818 6.206061 7.757576 10.860606 15.515152 15.515151 24.824242-31.030303-10.860606-62.060606-23.272727-93.090909-34.133333-26.375758-9.309091-54.30303-20.169697-80.678788-29.478788-12.412121 3.10303-24.824242 6.206061-37.236363 7.757576-7.757576 1.551515-15.515152 3.10303-21.721212 4.654545 41.890909 18.618182 83.781818 37.236364 125.672727 54.30303 52.751515 23.272727 103.951515 44.993939 156.70303 68.266667-29.478788-43.442424-60.509091-88.436364-89.987879-131.878788L1017.793939 527.515152l-35.684848-51.2-9.309091-13.963637-15.515152-21.721212c4.654545-4.654545 1.551515-4.654545 10.860607-9.309091l-9.309091-13.963636c-4.654545 1.551515-9.309091 3.10303-13.963637 6.20606-6.206061-6.206061-9.309091-13.963636-15.515151-21.721212l-15.515152-23.272727c4.654545 7.757576 10.860606 13.963636 13.963637 20.169697 0 0-153.6-77.575758-228.072728-113.260606-24.824242-12.412121-49.648485-24.824242-72.921212-37.236364 6.206061 4.654545 10.860606 15.515152 17.066667 27.927273" fill="#708597" p-id="28250"></path><path d="M999.175758 423.563636c-21.721212 12.412121-20.169697 13.963636-24.824243 20.169697 17.066667 26.375758 34.133333 51.2 51.2 77.575758 10.860606 0 10.860606 1.551515 34.133333-10.860606 23.272727-12.412121 52.751515-52.751515 34.133334-77.575758-18.618182-23.272727-71.369697-21.721212-94.642424-9.309091" fill="#A8C8AB" p-id="28251"></path><path d="M1148.121212 678.012121L1092.266667 605.090909l-15.515152 7.757576c-6.206061-7.757576-10.860606-15.515152-17.066667-23.272727l15.515152-7.757576-24.824242-32.581818c-13.963636 6.206061-9.309091 1.551515-18.618182 4.654545l97.745454 130.327273c6.206061-1.551515 12.412121-3.10303 18.618182-6.206061" fill="#9DAABE" p-id="28252"></path><path d="M830.060606 629.915152c-32.581818-15.515152-66.715152-31.030303-99.29697-46.545455l-1.551515-3.10303c-1.551515 0-3.10303-1.551515-3.10303-1.551515-9.309091 1.551515-20.169697 4.654545-29.478788 6.20606 9.309091 21.721212 20.169697 43.442424 29.478788 63.612121l116.363636 44.99394c-1.551515 0-3.10303-1.551515-4.654545-1.551515-4.654545-20.169697-6.206061-40.339394-7.757576-62.060606" fill="#708597" p-id="28253"></path><path d="M425.115152 57.406061c-1.551515 0-1.551515 0 0 0" fill="#899AB5" p-id="28254"></path><path d="M434.424242 79.127273l72.921213 38.787879c1.551515-6.206061 3.10303-12.412121 6.20606-18.618182 10.860606 4.654545 23.272727 10.860606 34.133333 13.963636-1.551515 6.206061-4.654545 13.963636-6.20606 21.721212l88.436364 46.545455c7.757576-7.757576 17.066667-13.963636 24.824242-21.721212 10.860606 4.654545 23.272727 10.860606 34.133333 13.963636-9.309091 9.309091-20.169697 17.066667-29.478788 26.375758 20.169697 10.860606 41.890909 21.721212 62.060606 32.581818 20.169697 10.860606 41.890909 21.721212 62.060607 32.581818-3.10303 13.963636-4.654545 26.375758-7.757576 38.787879-24.824242-13.963636-49.648485-26.375758-74.472728-38.787879l-18.618181-9.309091c1.551515 0 1.551515 1.551515 3.10303 1.551515 72.921212 38.787879 147.393939 77.575758 221.866667 116.363637-32.581818-49.648485-66.715152-99.29697-99.29697-150.49697L425.115152 57.406061c3.10303 7.757576 6.206061 13.963636 9.30909 21.721212M957.284848 684.218182c-29.478788-12.412121-60.509091-24.824242-89.987878-37.236364 1.551515 18.618182 4.654545 35.684848 4.654545 54.30303l341.333333 119.466667c-9.309091-12.412121-17.066667-26.375758-26.375757-38.787879-74.472727-34.133333-152.048485-66.715152-229.624243-97.745454" fill="#708597" p-id="28255"></path><path d="M423.563636 57.406061c1.551515 0 1.551515 0 0 0" fill="#899AB5" p-id="28256"></path><path d="M484.910545 380.586667l-79.127272 46.545454h1.551515c32.581818-4.654545 68.266667-6.206061 107.054545-3.10303 32.581818 3.10303 68.266667 7.757576 102.4 20.169697l-41.890909-86.884849c-31.030303 7.757576-60.509091 15.515152-89.987879 23.272728M478.704485 262.671515c-6.206061 3.10303-12.412121 7.757576-18.618182 10.860606-4.654545 3.10303-9.309091 6.206061-13.963636 7.757576-23.272727 43.442424-44.993939 88.436364-69.818182 130.327273v1.551515c57.406061-34.133333 114.812121-68.266667 173.769697-100.848485l-35.684849-71.369697c-10.860606 7.757576-23.272727 15.515152-35.684848 21.721212M463.189333 240.950303c12.412121-7.757576 24.824242-13.963636 38.787879-21.721212l-13.963636-26.375758c-7.757576 15.515152-17.066667 32.581818-24.824243 48.09697M301.831758 126.138182c0 3.10303-1.551515 6.206061-3.103031 9.309091 20.169697-7.757576 40.339394-17.066667 60.509091-24.824243 24.824242-10.860606 49.648485-20.169697 74.472727-32.581818l-9.30909-20.169697c-46.545455 24.824242-127.224242 71.369697-122.569697 68.266667" fill="#9DAABE" p-id="28257"></path><path d="M354.583273 133.895758c-23.272727 9.309091-48.09697 18.618182-71.369697 29.478787-7.757576 18.618182-15.515152 38.787879-23.272728 58.957576 66.715152-27.927273 134.981818-54.30303 203.248485-82.230303l-21.721212-43.442424c-29.478788 12.412121-57.406061 23.272727-86.884848 37.236364" fill="#A8C8AB" p-id="28258"></path><path d="M368.546909 208.368485c-35.684848 13.963636-71.369697 27.927273-108.606061 41.890909-3.10303 1.551515-7.757576 3.10303-10.860606 4.654545-12.412121 27.927273-24.824242 57.406061-38.787878 85.333334-3.10303 6.206061-4.654545 10.860606-7.757576 17.066666 17.066667-6.206061 34.133333-12.412121 51.2-20.169697 57.406061-21.721212 113.260606-43.442424 172.218182-66.715151l4.654545-9.309091s1.551515 0 1.551515-1.551515c7.757576-15.515152 15.515152-29.478788 23.272728-44.99394 6.206061-12.412121 10.860606-23.272727 17.066666-34.133333 3.10303-4.654545 6.206061-10.860606 7.757576-15.515151v-1.551516c-37.236364 15.515152-74.472727 29.478788-111.709091 44.99394" fill="#9DAABE" p-id="28259"></path><path d="M572.431515 350.890667c-1.551515 0 38.787879 88.436364 38.787879 88.436363 1.551515 0 4.654545 1.551515 6.206061 1.551515h1.551515l1.551515 1.551516c1.551515 4.654545 4.654545 9.309091 6.20606 12.412121h4.654546c20.169697-3.10303 41.890909-3.10303 60.509091-6.206061 13.963636-1.551515 27.927273-3.10303 40.339394-4.654545-52.751515-29.478788-107.054545-60.509091-159.806061-93.090909 0-1.551515 0-3.10303-1.551515-4.654546-3.10303-4.654545-6.206061-10.860606-7.757576-15.515151 54.30303 32.581818 111.709091 66.715152 167.563637 99.296969 7.757576 4.654545 15.515152 9.309091 23.272727 12.412122 1.551515 1.551515 3.10303 1.551515 4.654545 3.10303 40.339394 23.272727 79.127273 44.993939 119.466667 68.266667 26.375758-6.206061 51.2-12.412121 76.024242-18.618182-9.309091-7.757576-17.066667-15.515152-23.272727-23.272728-52.751515-20.169697-105.50303-40.339394-156.70303-60.50909l-214.109091-83.781819c-3.10303-6.206061-6.206061-13.963636-10.860606-20.169697 26.375758 10.860606 52.751515 20.169697 79.127273 31.030303 6.206061 3.10303 13.963636 6.206061 20.169697 7.757576-1.551515-1.551515-1.551515-4.654545-3.103031-6.20606-9.309091-20.169697-18.618182-40.339394-26.375757-60.509091-3.10303-1.551515-4.654545-1.551515-7.757576-3.103031-9.309091-4.654545-18.618182-7.757576-27.927273-12.412121-21.721212-7.757576-44.993939-18.618182-66.715151-26.375757-4.654545-4.654545-10.860606-20.169697-12.412122-21.721213 21.721212 7.757576 43.442424 17.066667 63.612122 26.375758 13.963636 6.206061 27.927273 10.860606 41.890909 17.066667-6.206061-12.412121-10.860606-26.375758-17.066667-38.787879-29.478788-13.963636-58.957576-29.478788-86.884848-44.993939-4.654545 4.654545-10.860606 7.757576-17.066667 10.860606-3.10303-7.757576-15.515152-32.581818-18.618182-35.684849 0-3.10303-1.551515-6.206061-3.10303-7.757576 0 0 0-1.551515-1.551515-1.551515 41.890909 21.721212 82.230303 43.442424 124.121212 65.163637 9.309091-7.757576 17.066667-13.963636 24.824242-20.169697-26.375758-12.412121-51.2-26.375758-77.575757-40.339394-31.030303-17.066667-60.509091-32.581818-93.090909-49.648485" fill="#708597" p-id="28260"></path><path d="M682.666667 569.406061c4.654545-1.551515 7.757576-1.551515 12.412121-3.103031-12.412121-18.618182-24.824242-37.236364-38.787879-55.854545" fill="#899AB5" p-id="28261"></path><path d="M631.466667 501.139394c-27.927273 26.375758-52.751515 52.751515-80.678788 77.575758-21.721212 21.721212-44.993939 43.442424-68.266667 66.715151 51.2-9.309091 102.4-20.169697 153.6-29.478788 13.963636-17.066667 26.375758-34.133333 40.339394-51.2l-29.478788-55.854545c-6.206061-3.10303-10.860606-4.654545-15.515151-7.757576M588.024242 732.315152l134.981819-83.781819-29.478788-60.509091c-13.963636 20.169697-88.436364 121.018182-105.503031 144.29091" fill="#9DAABE" p-id="28262"></path></svg>