<?xml version="1.0" standalone="no"?><!DOCTYPE svg PUBLIC "-//W3C//DTD SVG 1.1//EN" "http://www.w3.org/Graphics/SVG/1.1/DTD/svg11.dtd"><svg t="1731460980270" class="icon" viewBox="0 0 1024 1024" version="1.1" xmlns="http://www.w3.org/2000/svg" p-id="26137" xmlns:xlink="http://www.w3.org/1999/xlink" width="200" height="200"><path d="M509.452635 5.094526c0.830408 14.356375 1.997054 27.067218 3.240119 38.224232 3.734288 1.222686 6.40382 4.238646 6.403819 7.611222 0 2.949731-1.834029 5.451143-4.574884 6.928556 4.075621 29.395417 8.314267 44.093126 8.314267 44.093125 6.485332 8.38559 10.642466 23.011976 10.642465 39.441823 0 19.017867-5.654924 35.534321-13.719559 42.982519 1.416278 2.073472 8.732018 4.233551 11.391361 6.215322 4.406765 1.818746 8.135959 3.978825 10.392833 6.668735 1.660816 2.068378 2.740855 4.41186 2.740856 6.734964 0 0.346428-0.091701 0.692856-0.091702 1.039283l0.331144 0.086607c41.571335 3.729193 70.508245 28.977666 70.508245 28.977666h-0.748895c19.03315 9.068257 61.429799-3.897313 61.429798-3.897312-8.645411 39.182002-29.685805 58.29157-50.54789 66.24922 0 0-0.076418 0-0.15793 0.163025-0.417751 0.101891-0.840597 0.183403-1.171741 0.443224-3.98392 1.558925-15.706425 5.960596-21.19323 8.044257v12.007799h10.892097v-4.585074c0-4.060338 3.158606-7.422725 7.137432-7.422725 3.999203 0 7.15781 3.362387 7.157809 7.427819v22.752155c0 3.01596-0.743801 5.792476-1.99196 8.55371 21.697588 9.771302 74.981239-3.800517 74.981239-3.800517-11.228336 46.691334-48.046478 65.459569-72.65304 71.69527 0 0-4.238646 1.732139-15.38547 5.522466v12.023082h10.810585v-4.661491c0-4.075621 3.245213-7.361591 7.142526-7.361591 3.917691 0 7.15781 3.285969 7.15781 7.361591v22.828572c0.081512 4.055243-1.660816 8.304078-3.739383 11.849868 24.265229 4.422049 66.249221-7.142526 69.020643-7.916893l0.142647-0.040757c-13.383321 55.433541-66.503947 72.729458-87.289614 75.918632v13.154067h10.881908v-4.666586c0-4.065432 3.158606-7.351402 7.076297-7.351402 3.907502 0 7.066108 3.285969 7.066108 7.351402v21.004732c1.248159 9.261849-6.398725 18.421807-12.135162 24.046164 22.772533 13.831639 111.9675-3.627303 111.9675-3.627302-18.197648 65.464664-98.421155 78.338532-112.466763 79.464422v17.902165h14.045609v-4.748098c0-4.671681 3.566168-8.390685 7.983123-8.390685 4.406765 0 8.054446 3.719004 8.054446 8.390685v22.568751c1.589492 11.157013-9.470724 22.487239-16.037569 28.193109 27.683656 10.887003 115.635559-5.359442 115.635559-5.359441-19.292971 64.511987-103.663422 77.997198-120.46517 79.37272v22.400632h18.375956v-5.446048c0-5.26774 4.152039-9.506386 9.231282-9.506386 5.074148 0 9.231282 4.238646 9.231282 9.506386v25.854721c1.579303 12.023082-9.475819 24.214284-17.05138 31.046044 31.932491 8.049352 121.952772-7.606128 122.044473-7.606128-17.05138 45.137503-80.554651 64.598594-113.730206 68.83724v68.057777A475.89499 475.89499 0 0 1 509.452635 1023.999796a473.597358 473.597358 0 0 1-156.284785-26.374363v-67.981359c-33.170461-4.401671-96.765433-23.862761-113.725112-68.83724 0 0 89.938768 15.660574 121.952772 7.606128-7.74368-6.826665-18.798802-19.109568-17.04119-31.046044v-25.941328c0-5.181133 4.065432-9.419779 9.144674-9.419779 5.069054 0 9.134486 4.238646 9.134486 9.419779v5.532655h18.462564v-22.314025c-16.623439-1.207403-101.085592-14.784315-120.373469-79.38291 0 0 87.788878 16.256634 115.635559 5.451144-6.566844-5.797571-17.627061-17.204215-16.042663-28.193109v-22.660453c0-4.585074 3.576357-8.380496 7.978028-8.380496 4.493372 0 8.064635 3.795422 8.064635 8.380496v4.849989h14.132216v-17.983678c-14.132216-1.039283-94.269116-14.009947-112.476953-79.4848 0 0 89.286669 17.382524 111.972595 3.632397-5.817949-5.614168-13.469928-14.78941-12.140256-23.944274v-21.111717c0-4.055243 3.158606-7.341212 7.076297-7.341213 3.907502 0 7.066108 3.285969 7.066108 7.341213v4.67168h10.800396v-12.975758c-20.699061-3.362387-73.977617-20.49528-87.289615-76.010333 0 0 44.149165 12.547818 69.254991 7.952555-2.160079-3.54579-3.820895-7.68764-3.820894-11.844773v-22.996692c0-4.075621 3.148417-7.361591 7.066108-7.361591 3.989014 0 7.14762 3.285969 7.14762 7.361591v4.661491h10.892098v-12.023082c-11.223242-3.708815-15.461887-5.522467-15.461888-5.522466-24.606562-6.2357-61.526595-25.003935-72.739647-71.69527 0 0 53.288746 13.485211 74.976144 3.800517-1.156457-2.761233-1.986865-5.700775-1.986865-8.558804v-22.747061c0-4.065432 3.158606-7.427819 7.137431-7.427819 3.999203 0 7.15781 3.362387 7.15781 7.427819v4.585074h11.055122v-12.012893c-5.318686-2.088756-17.132892-6.67383-21.111717-8.044257a3.38786 3.38786 0 0 0-1.166647-0.443224c-0.091701-0.163025-0.249632-0.163025-0.249632-0.163025-20.780573-7.95765-41.897385-27.067218-50.537701-66.24922 0 0 42.310041 12.970664 61.41961 3.897312 0 0 28.356134-24.907139 69.509717-28.885964 0.081512 0 0.331144-0.178308 0.489075-0.178309-0.076418-0.346428-0.076418-0.692856-0.076418-1.039283 0-2.409711 0.998527-4.666586 2.74595-6.734964 2.241592-2.506507 5.899462-4.849989 10.464157-6.668735 2.496318-1.981771 9.985272-4.055243 11.396455-6.215322-8.146148-7.524615-13.714465-23.964652-13.714465-42.982519 0-16.429847 4.238646-31.056233 10.555859-39.441823 0 0 4.406765-14.606007 8.390685-44.09822-2.74595-1.467224-4.564696-3.973731-4.564696-6.928556 0-3.535601 2.659343-6.388536 6.398725-7.606127 1.324577-11.157013 2.323104-23.867856 3.326726-38.224232z m14.050704 925.507319c0-18.421807-33.919356-18.421807-33.919357 0v28.799357c0 18.416713 33.919356 18.416713 33.919357 0z m-2.328199-108.279063c0-18.238404-32.762899-18.238404-32.762899 0v27.164014c0 18.238404 32.757804 18.238404 32.757805 0z m-2.908974-136.456889c0-15.920395-27.113069-15.920395-27.11307 0v28.702562c0 15.910206 27.113069 15.910206 27.11307 0z m-10.999083-138.469226l-0.804935 0.010189c-7.325929 0.346428-13.469928 6.052297-13.469928 13.66352v19.455996c0 7.264795 6.143999 14.096554 13.469928 13.750127 7.31574-0.346428 13.454644-6.047203 13.454644-13.750127v-19.461091c0-7.173093-6.138904-14.009947-13.454644-13.658425z m12.828017-118.641329c0-15.905111-27.10288-16.08342-27.10288 0v23.964652c0 15.910206 27.10288 16.073231 27.10288 0z m-9.333172-152.886736h-0.815124c-7.320834 0.346428-13.464833 5.792476-13.464833 13.22539v16.949489c0 6.928556 6.143999 13.500495 13.469928 13.230485 7.31574-0.346428 13.55144-5.792476 13.55144-13.230485v-16.949489c0-6.918367-6.2357-13.4954-13.55144-13.22539z" fill="#A7ACB2" p-id="26138"></path></svg>