<?xml version="1.0" standalone="no"?><!DOCTYPE svg PUBLIC "-//W3C//DTD SVG 1.1//EN" "http://www.w3.org/Graphics/SVG/1.1/DTD/svg11.dtd"><svg t="1731461054182" class="icon" viewBox="0 0 1024 1024" version="1.1" xmlns="http://www.w3.org/2000/svg" p-id="34440" xmlns:xlink="http://www.w3.org/1999/xlink" width="200" height="200"><path d="M602.624 467.456l-65.536-49.664V331.264c0-27.136-21.504-48.128-48.64-48.128-26.624 0-48.128 22.016-48.128 48.64V442.368c0 15.36 7.168 29.696 19.456 38.912l84.992 64c8.704 6.144 18.432 9.728 29.184 9.728 15.36 0 29.696-7.168 38.912-19.456 6.144-8.704 9.728-18.432 9.728-29.184-0.512-15.872-7.68-29.696-19.968-38.912z" fill="#36E0AB" p-id="34441"></path><path d="M503.808 3.072c-235.008 0-425.472 189.44-425.472 422.4 0 107.52 40.448 204.8 106.496 279.04 1.536 3.584 4.096 6.656 7.168 9.728l276.48 287.232c1.536 1.536 2.56 3.584 4.608 5.12 4.096 4.096 8.704 7.168 14.336 9.216 15.872 7.168 35.328 5.12 48.128-8.192 3.584-3.584 6.144-7.68 8.192-12.288l270.848-282.112c2.56-2.56 4.608-5.12 6.144-8.192 67.072-74.752 108.032-172.544 108.032-280.576 0-231.936-189.952-421.376-424.96-421.376z m-230.4 407.04c0-126.976 102.912-230.4 230.4-230.4s230.4 102.912 230.4 230.4-102.912 230.4-230.4 230.4-230.4-102.912-230.4-230.4z" fill="#36E0AB" p-id="34442"></path></svg>