<?xml version="1.0" standalone="no"?><!DOCTYPE svg PUBLIC "-//W3C//DTD SVG 1.1//EN" "http://www.w3.org/Graphics/SVG/1.1/DTD/svg11.dtd"><svg t="1731461111442" class="icon" viewBox="0 0 1024 1024" version="1.1" xmlns="http://www.w3.org/2000/svg" p-id="40416" xmlns:xlink="http://www.w3.org/1999/xlink" width="200" height="200"><path d="M511.884661 0.072437A426.495448 426.495448 0 0 0 77.773223 434.183875c0 159.258816 130.318054 347.28915 405.170676 578.81525 14.385759 14.555003 43.495766 14.555003 72.436528 0 260.466863-231.5261 390.784916-419.725679 390.784916-578.81525A426.495448 426.495448 0 0 0 511.884661 0.072437z" fill="#39B242" p-id="40417"></path><path d="M513.069371 440.276667m-335.272811 0a335.27281 335.27281 0 1 0 670.545621 0 335.27281 335.27281 0 1 0-670.545621 0Z" fill="#FFFFFF" p-id="40418"></path><path d="M692.975982 640.831074a10.83163 10.83163 0 0 1-10.83163 10.83163H328.254677a10.83163 10.83163 0 0 1-10.831631-10.83163l30.294717-55.68135a10.83163 10.83163 0 0 1 10.83163-10.831631h293.130998a10.83163 10.83163 0 0 1 10.831631 10.831631zM428.616502 415.56701l-30.633204 119.824911a10.83163 10.83163 0 0 0 10.83163 11.000875h192.430684a10.83163 10.83163 0 0 0 11.000875-11.000875l-30.633205-119.824911zM573.489559 384.087584l-37.233729-144.703813a10.83163 10.83163 0 0 0-10.831631-10.83163H483.959364a10.83163 10.83163 0 0 0-10.83163 10.83163l-36.895242 144.703813z" fill="#39B242" p-id="40419"></path></svg>