<?xml version="1.0" standalone="no"?><!DOCTYPE svg PUBLIC "-//W3C//DTD SVG 1.1//EN" "http://www.w3.org/Graphics/SVG/1.1/DTD/svg11.dtd"><svg t="1731461774239" class="icon" viewBox="0 0 1024 1024" version="1.1" xmlns="http://www.w3.org/2000/svg" p-id="55708" xmlns:xlink="http://www.w3.org/1999/xlink" width="200" height="200"><path d="M480 525.4h64v128h-64zM576 525.4h64v128h-64zM384 525.4h64v128h-64z" fill="#0CC86F" p-id="55709"></path><path d="M970.7 296.9c-16.8-71.7-42.4-122.8-80.5-160.8l-1.1-1.1c-0.4-0.4-0.7-0.8-1.1-1.1-38.1-38.1-89.2-63.6-160.8-80.5C666.6 39.3 594.3 32.1 512 32c-82.3 0.1-154.6 7.3-215.1 21.3-72.3 17-123.8 42.9-162 81.6-38.7 38.2-64.6 89.6-81.6 162C39.3 357.4 32.1 429.7 32 512c0.1 82.3 7.3 154.6 21.3 215.1 16.8 71.7 42.4 122.8 80.5 160.8l1.1 1.1c0.4 0.4 0.7 0.8 1.1 1.1 38.1 38.1 89.2 63.6 160.8 80.5 60.5 14 132.8 21.2 215.1 21.3 82.3-0.1 154.6-7.3 215.1-21.3 72.3-17 123.8-42.9 162-81.6 38.7-38.2 64.6-89.6 81.6-162 14-60.5 21.2-132.8 21.3-215.1 0-82.2-7.2-154.5-21.2-215zM768 749.3H256v-32h64v-63.9h32v-128h-71.7c-15.8 0-22-20.5-8.9-29.3l107.9-72.3h-42.1c-15.8 0-22-20.5-8.9-29.3l174.9-117.1c5.4-3.6 12.4-3.6 17.8 0l174.9 117.1c13.1 8.8 6.9 29.3-8.9 29.3h-42.1l107.9 72.3c13.1 8.8 6.9 29.3-8.9 29.3H672v128h32v63.9h64v32z" fill="#0CC86F" p-id="55710"></path><path d="M352.1 685.4h320v31.9h-320z" fill="#0CC86F" p-id="55711"></path></svg>