<?xml version="1.0" standalone="no"?><!DOCTYPE svg PUBLIC "-//W3C//DTD SVG 1.1//EN" "http://www.w3.org/Graphics/SVG/1.1/DTD/svg11.dtd"><svg t="1731461073757" class="icon" viewBox="0 0 1032 1024" version="1.1" xmlns="http://www.w3.org/2000/svg" p-id="36450" xmlns:xlink="http://www.w3.org/1999/xlink" width="201.5625" height="200"><path d="M126.949266 322.328097C126.949266 225.554674 205.399742 147.102756 302.174607 147.102756c96.774865 0 175.225341 78.451919 175.225341 175.225341 0 96.770538-78.450476 175.225341-175.225341 175.225341C205.399742 497.553438 126.949266 419.098635 126.949266 322.328097z" fill="#1AD3BC" p-id="36451"></path><path d="M470.189029 211.279938C470.189029 97.780067 562.198918 5.768736 675.700232 5.768736S881.211434 97.780067 881.211434 211.279938 789.201545 416.791141 675.700232 416.791141 470.189029 324.779809 470.189029 211.279938z" fill="#FBB945" p-id="36452"></path><path d="M1.479269 773.010559c0-133.80582 108.798352-242.286892 243.007983-242.286892S487.495236 639.204739 487.495236 773.010559s-108.798352 242.286892-243.007984 242.286891S1.479269 906.816379 1.479269 773.010559z" fill="#2EBCFA" p-id="36453"></path><path d="M533.64512 682.874066c0-134.209632 108.798352-243.007984 243.007983-243.007983S1019.661087 548.664435 1019.661087 682.874066 910.862735 925.88205 776.653103 925.88205 533.64512 817.083698 533.64512 682.874066z" fill="#FC868B" p-id="36454"></path><path d="M261.072367 515.580737c0-134.209632 108.798352-243.007984 243.007983-243.007984S747.088334 381.371105 747.088334 515.580737 638.289982 758.58872 504.08035 758.58872 261.072367 649.790368 261.072367 515.580737z" fill="#985184" fill-opacity=".749" p-id="36455"></path><path d="M468.997785 275.457121l3.409323 11.032706A177.382848 177.382848 0 0 1 475.957765 321.895442c0 97.01571-78.24136 175.657996-174.756632 175.657996-12.06531 0-23.843626-1.225856-35.219572-3.562194l-3.46701-1.081638 2.666598-26.579449c19.34257-95.025496 93.796755-169.860417 188.326139-189.301056l15.490497-1.57198z" fill="#005D7A" fill-opacity=".796" p-id="36456"></path><path d="M504.60819 272.572753c83.561576 0 157.23554 42.299253 200.740458 106.635076L722.571208 410.907031l-5.571156 1.73062a205.964048 205.964048 0 0 1-41.281072 4.15349c-84.842235 0-157.636467-51.52923-188.731393-124.979655L481.7265 274.880247l22.88169-2.307494z" fill="#953B24" fill-opacity=".773" p-id="36457"></path><path d="M733.983209 444.192635l6.724903 21.603914A242.68205 242.68205 0 0 1 745.64615 514.628895c0 117.105331-83.307752 214.813289-194.053052 237.41231l-7.727221 0.77878-6.724904-21.603915A242.68205 242.68205 0 0 1 532.202936 682.383724c0-117.105331 83.307752-214.813289 194.053052-237.41231l7.727221-0.778779z" fill="#953B24" fill-opacity=".78" p-id="36458"></path><path d="M262.514551 532.165851l30.569971 3.086274c94.517847 19.354108 168.963379 93.857327 188.304507 188.464589L484.610868 755.704352l-30.569972-3.086273c-94.516405-19.354108-168.961937-93.871749-188.303064-188.464589L262.514551 532.165851z" fill="#134496" fill-opacity=".737" p-id="36459"></path></svg>